#!OML:ASF F:\VICON\USERDATA\INSTALL\rory3\rory3.ASF
:FULLY-SPECIFIED
:DEGREES
45
root 0.2655702494112788 18.20835037618168 31.118446548993273 -4.646362946843044 -1.3651667902060927 -8.671098905251602
lfemur -31.608947501649446 2.809189816362508 -6.483633721434892
ltibia 68.95691923322323
lfoot -4.792701199094468 0.6169457918858559
ltoes -1.6331182386086205
rfemur 8.104029963460926 9.574608841852669 38.68689192046379
rtibia 4.6905857049701964
rfoot -22.355068756408087 -11.257400851100275
rtoes 12.896930464254789
lowerback 8.757731070785855 1.210219476934689 7.7358202397853635
upperback 0.8071381850902826 2.7498820672766526 3.2829994248688
thorax -3.756550378675482 1.160136359508086 -1.3094533009936629
lowerneck -14.797442378250771 -2.8623735187094015 -1.5036929353504438
upperneck 23.474900724660426 -3.6087933230601306 -0.27815811014338365
head 9.849718235629053 -1.8471744100470855 -0.31802471853344383
lclavicle 1.44254056801665e-16 4.5707688337006496e-17
lhumerus -32.4346037860535 8.663668699233835 79.16556054584142
lradius 2.6454570552935124
lwrist -0.6478273345625958
lhand -29.449042141184226 29.402666257315808
lfingers 7.12502000000006
lthumb -2.7851156563808335 59.36545242879173
rclavicle 1.442540568016654e-16 4.57076883370062e-17
rhumerus -14.90445898599108 -22.26447227354069 -73.52512439917288
rradius 6.299522841443597
rwrist 9.81447365361866
rhand -17.019352300900742 28.483126606221525
rfingers 7.12502000000006
rthumb 9.215654363006632 -7.09513383044573
46
root 0.2930575543179244 18.132589382362088 30.045037718167517 -4.030980329911357 -1.873498947691689 -8.474474951778427
lfemur -31.697021965539943 2.031915038368674 -6.98518363194815
ltibia 60.606513679886376
lfoot -7.2434620829921315 2.7155187313772506
ltoes -2.690640065129018
rfemur 8.83359133531586 9.490453497760647 37.95498458857058
rtibia 6.272304095572224
rfoot -22.001000300445316 -11.244093842720996
rtoes 11.255699128863458
lowerback 8.735790208464229 1.4620336239744884 7.6267016514121035
upperback 0.7418136692362793 3.050719756737395 3.040767102874579
thorax -3.805964624711488 1.3112984307139934 -1.5573509712346838
lowerneck -15.036034143933538 -2.917715354416356 -1.4786464134734874
upperneck 23.012531657916732 -3.7105395476345646 -0.1293371951157254
head 9.745418413055086 -1.876271450732118 -0.2823370374972337
lclavicle -2.451176221309578e-18 -6.788736738297691e-17
lhumerus -32.90341865192041 9.199588609903088 78.96695175457158
lradius 3.3710177694798986
lwrist -0.40461687075830355
lhand -29.587965679197875 28.74482462834475
lfingers 7.12502000000006
lthumb -2.9192895928322096 58.70763620250148
rclavicle -2.451176221309381e-18 -6.788736738297661e-17
rhumerus -14.481968869658118 -20.363508781179544 -74.81136392716454
rradius 8.476984853777886
rwrist 8.102545251852302
rhand -17.142545460776837 28.750881587079512
rfingers 7.12502000000006
rthumb 9.096932681433788 -7.203276604150957
47
root 0.33680823503037793 18.066338242279866 28.34977787980335 -3.5564254933284047 -2.337341075610718 -8.083323245261894
lfemur -30.615620465651258 0.9323553231111104 -7.79527758153902
ltibia 52.030302515668744
lfoot -8.584656779744675 3.9961419054647758
ltoes -3.886986574778893
rfemur 9.151597354394982 9.227121003132606 36.87404742767914
rtibia 8.536484277467515
rfoot -20.521165649731373 -10.556164368842811
rtoes 9.893183037498616
lowerback 8.685477034244538 1.6433315344403816 7.308104336608154
upperback 0.6708910976826565 3.23368480373399 2.8057311624843413
thorax -3.849984296238006 1.4091628554808562 -1.661466376179499
lowerneck -15.24747613675677 -2.9582167823414345 -1.454972697043182
upperneck 22.7242836693103 -3.7812191388813603 -0.0365147160921524
head 9.693915980613705 -1.8975295654835806 -0.26302114544970223
lclavicle -1.3302603945169083e-16 -1.6902489219779482e-16
lhumerus -33.16099526855019 9.684091433718297 78.6778150926882
lradius 3.689335305886509
lwrist -0.5014390942585507
lhand -29.777281396191185 28.129218549522736
lfingers 7.125020000000059
lthumb -3.1021010614718185 58.09136614852264
rclavicle -1.3302603945169152e-16 -1.6902489219779482e-16
rhumerus -14.543296746856157 -19.46021772696212 -75.45758335941949
rradius 9.942844278281932
rwrist 7.1485204346306395
rhand -17.23073067791287 29.270723807472148
rfingers 7.125020000000059
rthumb 9.012068302534333 -7.490142775841247
48
root 0.38266612320174864 18.02509401931848 26.797259649895434 -3.244925124413656 -2.8205596857307613 -7.817480500847264
lfemur -29.227350527577183 -0.2843417204517672 -8.352437925146376
ltibia 44.11971805381632
lfoot -8.555816418926694 4.636452557964154
ltoes -5.321131635603727
rfemur 9.553477564715378 8.897209008132096 36.055683766630175
rtibia 11.468437356887556
rfoot -19.127997664558723 -9.348827800753591
rtoes 8.930868541242464
lowerback 8.57736025958258 1.7975380528038771 7.101374298478337
upperback 0.6085485573942684 3.396170839520862 2.6377023261305625
thorax -3.8559836652698842 1.4949069052205881 -1.7307494424514402
lowerneck -15.40119143747334 -2.958600850354302 -1.4108060914879754
upperneck 22.653815262205757 -3.789683769755512 -0.024500810169410192
head 9.70001648761226 -1.8956602357474972 -0.2677069165069167
lclavicle -1.8055707644468067e-16 -2.0586030281716892e-16
lhumerus -33.29397952149384 10.5263476942481 78.25743987214713
lradius 3.2504447764865887
lwrist -0.9950996278851036
lhand -29.96246319482576 27.71138751398287
lfingers 7.125020000000059
lthumb -3.280919169121937 57.67265709821679
rclavicle -1.8055707644468018e-16 -2.0586030281716873e-16
rhumerus -14.552758972097408 -19.27811027516812 -75.51634085832316
rradius 10.622193593037025
rwrist 6.869722440878763
rhand -17.273464336390838 29.958472231081146
rfingers 7.125020000000059
rthumb 8.971024711719753 -7.812281740188052
49
root 0.41366263724948327 17.976900435186273 24.06722294416555 -3.036271530402219 -3.1194113794955003 -7.504991432828895
lfemur -27.657758439627404 -1.3328916502858157 -9.070904887576386
ltibia 37.973034099965346
lfoot -8.287928570190083 4.6534674456782374
ltoes -6.806596035234435
rfemur 8.92412683081726 8.249061547997828 35.13179381145616
rtibia 16.321039759114214
rfoot -18.096184243895436 -8.006624304390707
rtoes 8.405517157409673
lowerback 8.647903257996 1.8672201123502083 6.737759917158212
upperback 0.5664939057981568 3.4253855731348737 2.4789954491237625
thorax -3.9618488709062754 1.5209743784686487 -1.6912252876090608
lowerneck -15.570551565311458 -2.962938819549079 -1.367423307474481
upperneck 22.51312418047418 -3.805578753614725 0.009870175082202559
head 9.687268421390705 -1.8960500780975156 -0.2657922070935824
lclavicle -3.114119451341606e-16 -3.072133817138368e-16
lhumerus -33.35395475776075 10.946633746909034 78.07882260127617
lradius 3.531097094129919
lwrist -1.3173200602009025
lhand -30.051964390388235 27.19780385867719
lfingers 7.125020000000059
lthumb -3.367332182785818 57.15921762434693
rclavicle -3.114119451341604e-16 -3.072133817138369e-16
rhumerus -15.17282946224908 -19.38894709412588 -75.5849423281993
rradius 11.404454442866907
rwrist 6.7885143807550845
rhand -17.362660947805285 30.758174768919716
rfingers 7.125020000000059
rthumb 8.885097737654974 -8.027795626237982
50
root 0.4429868260689646 17.938846149917634 20.625351019770758 -2.9537120977836744 -3.1516436527748506 -6.972339501827484
lfemur -25.715041988582712 -2.1117989178837724 -10.240187934256493
ltibia 33.92769093579186
lfoot -7.650845618610903 3.84679745139701
ltoes -7.538650012164085
rfemur 7.301708363458724 7.335475347926609 33.93050970670649
rtibia 22.373403659644882
rfoot -16.22186546014277 -6.654122665543812
rtoes 8.173288876774407
lowerback 8.85723571953906 1.8383338286430235 6.127285852908628
upperback 0.5212046165272417 3.293700295533677 2.3057694374960827
thorax -4.159090283025508 1.473981417673778 -1.5103312905346886
lowerneck -15.717605906755985 -2.9894365119519484 -1.3561389382669167
upperneck 22.368091615666525 -3.8485297576876003 0.07658724866805167
head 9.673544077268163 -1.909570443771277 -0.25111728569521574
lclavicle -4.627200285343699e-16 -4.243427243250292e-16
lhumerus -33.45865913752759 10.750591034029718 78.1845005022893
lradius 4.980667538588712
lwrist -1.366102304195838
lhand -30.02672931175077 26.528250207090824
lfingers 7.125020000000058
lthumb -3.3429241885446546 56.491096467056785
rclavicle -4.627200285343699e-16 -4.2434272432502937e-16
rhumerus -16.552726987507217 -19.654507848621414 -75.70876414721661
rradius 12.774601315953575
rwrist 6.716318602565379
rhand -17.445327516110947 31.45966566657422
rfingers 7.125020000000058
rthumb 8.805506781498329 -8.163603325436286
